<?xml version="1.0" encoding="utf-8"?>
<!-- Generator: Adobe Illustrator 17.0.0, SVG Export Plug-In . SVG Version: 6.00 Build 0)  -->
<!DOCTYPE svg PUBLIC "-//W3C//DTD SVG 1.1//EN" "http://www.w3.org/Graphics/SVG/1.1/DTD/svg11.dtd">
<svg version="1.1" id="Layer_1" xmlns="http://www.w3.org/2000/svg" xmlns:xlink="http://www.w3.org/1999/xlink" x="0px" y="0px"
	 width="1240px" height="658px" viewBox="0 0 1240 658" enable-background="new 0 0 1240 658" xml:space="preserve">
<g>
	<rect fill="#E17B30" width="1240" height="607"/>
	<polygon fill="#66A5A4" points="620,547.603 693,607 620,657.667 546.333,607 	"/>
	<g>
		<defs>
			<rect id="SVGID_1_" width="1240" height="607"/>
		</defs>
		<clipPath id="SVGID_2_">
			<use xlink:href="#SVGID_1_"  overflow="visible"/>
		</clipPath>
		<g clip-path="url(#SVGID_2_)">
			<rect x="-18" fill="#E17B30" width="1240" height="607"/>
			<path fill="#66A5A4" d="M1240,0H405.679c10.748,31.522,34.654,61,34.654,61s7,9.333,4.667,10.333s-6-2.333-9-5.167
				s-10.667,1.5-11.333-5.167C424,54.333,424,54.333,424,54.333S422,52,420.667,49c-1.333-3-10-6.333-11.667-6.333
				s-10-9.333-12.333-11c-2.333-1.667-3.333,2.667,0,6c3.333,3.333,7.333,3,6.333,8s2.5,10.912,2.5,10.912s7.917,3.877,8.25,8.877
				s2.458,25.105,10.125,24.772s9.539-3.614,10.801-13.781c0,0,4.959-3.724,5.293,5.61c0.333,9.333,2.968,19.305,5.492,22.638
				c2.524,3.333,5.865,17.986,9.532,24.652s2.67,10.66,0.004,11.326c-2.667,0.667-8.998,5.663-0.665,5.33
				c0,0-0.666,32.332,5.001,34.998c5.667,2.667,1.333,8.666,0,11.999c-1.333,3.333,0.351,18,2.842,19.666
				c2.492,1.667,5.158,1,5.158,3S466,218,466,221.333c0,3.333,4,4.333,4,5.667c0,1.333-4,5.333-2.667,6.667
				c1.333,1.333,4.333,2.667,4.333,6c0,3.333-3,8,0,8.333s2.333,4.667,2.333,6.667s0.333,3.667,3.333,5.333
				c3,1.667-3.667,4.667,0,6.667c3.667,2,7,4,10.667,7.667c3.667,3.667,5.333,9,12.667,10c7.333,1,14.667,1.667,14.667-1.667
				s0-5.667-3.667-5.333c0,0,4-3.667,6.333,1C520.333,283,516.333,290,508.667,290c-7.667,0-9.333,0-10.333,2s-10,14-8,22.667
				s5.333,24.667,7,31c1.667,6.333,1.667,14,6,17.833c4.333,3.833,6.667,9.167,12.333,9.167c5.667,0,7-0.667,9.333,5.667
				c2.333,6.333,28.667,57,28.667,57s7.667,1.167,10-2.5c2.333-3.667,11-18.833,11-18.833H617v22h-40v7h63c0,0-1.667,7-11.333,7
				C619,450,578,450,578,450v15h11v4h32v5h-43v31h-16c0,0-5,14.667-20,14.667V524h4v8h-5v21h2v54h697V0z"/>
			<path fill="none" stroke="#414242" stroke-width="3" stroke-miterlimit="10" d="M-96.366,156L165,151.5h4
				c0,0-0.25-2.25,4.75-2.75S289.5,146,289.5,146v-2.5H352h79c0,0-1-5.792,25.667-4.792"/>
			<path fill="none" stroke="#414242" stroke-width="3" stroke-miterlimit="10" d="M598.5,671v-6c-3-0.667-7-4-7-4v-10.5h5.833
				c0.333,3,4.167-0.5,4.167-0.5v-7.667c4-11-1.417-14.083-5.75-14.75c-4.333-0.667-8.75,2.917-8.75,2.917h-21.333
				c0-12-11.583-8.917-16.25-9.25c-4.667-0.333-6.917-5.25-6.917-5.25v-62.5h-2v-21h5v-8h-4v-4.833c15,0,20.5-14.167,20.5-14.167
				h15.5v-31h43v-5h-32v-4h-11v-15c0,0,41.5,0,51.167,0c9.667,0,11.333-7,11.333-7h-63.5v-7h40v-22h-41.833
				c0,0-8.667,14.917-11,18.583c-2.333,3.667-10,2.375-10,2.375S527.333,384.729,525,378.396c-2.333-6.333-3.667-5.698-9.333-5.698
				c-5.667,0-8-5.349-12.333-9.182c-4.333-3.833-4.333-11.508-6-17.841c-1.667-6.333-5-22.337-7-31.004c-2-8.667,7-20.669,8-22.669
				s2.667-2.001,10.333-2.001s11.667-7,9.333-11.667c-2.333-4.667-6.333-1-6.333-1c3.667-0.333,3.667,2,3.667,5.333
				c0,3.333-7.333,2.667-14.667,1.667c-7.333-1-9-6.333-12.667-10c-3.667-3.667-7-5.667-10.667-7.667c-3.667-2,3-5,0-6.667
				c-3-1.667-3.333-3.333-3.333-5.333c0-2,0.667-6.333-2.333-6.667c-3-0.333,0-5,0-8.333c0-3.333-3-4.667-4.333-6
				C466,232.333,470,228.333,470,227c0-1.333-4-2.333-4-5.667c0-3.333,1.333-3.667,1.333-5.667s-2.667-1.333-5.158-3
				c-2.492-1.667-4.175-16.333-2.842-19.666c1.333-3.333,5.666-9.332,0-11.999c-5.667-2.667-5.001-34.998-5.001-34.998
				c-8.333,0.333-2.002-4.663,0.665-5.33c2.667-0.667,3.663-4.66-0.004-11.326c-3.667-6.667-7.008-21.319-9.532-24.652
				s-5.158-13.305-5.492-22.638s-5.293-5.61-5.293-5.61c-1.262,10.167-3.134,13.447-10.801,13.781
				c-7.667,0.333-9.792-19.772-10.125-24.772s-8.25-8.877-8.25-8.877s-3.5-5.912-2.5-10.912s-3-4.667-6.333-8
				c-3.333-3.333-2.333-7.667,0-6c2.333,1.667,10.667,11,12.333,11S419.333,46,420.667,49C422,52,424,54.333,424,54.333
				s0,0,0.667,6.667c0.667,6.667,8.333,2.333,11.333,5.167c3,2.833,6.667,6.167,9,5.167S440.333,61,440.333,61
				S411.417,25.667,402.75-9"/>
			<rect x="473.5" y="525.5" fill="none" stroke="#414242" stroke-width="3" stroke-miterlimit="10" width="57" height="104"/>
			<path fill="none" stroke="#414242" stroke-width="3" stroke-miterlimit="10" d="M530.5,525v-5.167c7,0,19.5-16.333,19.5-16.333
				h-76.5V525"/>
			<polyline fill="none" stroke="#414242" stroke-width="3" stroke-miterlimit="10" points="471,369.5 482.5,369.5 482.5,482.5 
				471.5,482.5 471.5,369 			"/>
			<polyline fill="none" stroke="#414242" stroke-width="3" stroke-miterlimit="10" points="446,347.5 455.333,347.5 471.5,364 
				471.5,426.5 446.5,426.5 446.5,348 			"/>
			<path fill="none" stroke="#414242" stroke-width="3" stroke-linecap="round" stroke-miterlimit="10" d="M484.083,475.167
				c0,0,5.083-3.667,8.583-3.667s63.333,0,63.333,0"/>
			<path fill="none" stroke="#414242" stroke-width="2" stroke-linecap="round" stroke-miterlimit="10" d="M578,465h-8.5
				c-2.75,0-2.5-2-2.5-2v-8h-11v5h6v8h-6v9h6v28"/>
			<polyline fill="none" stroke="#414242" stroke-width="3" stroke-linecap="round" stroke-miterlimit="10" points="446.5,347 
				446.5,257.5 347.5,257.5 347.5,307 374.667,349.5 447,349.5 			"/>
			<path fill="none" stroke="#414242" stroke-width="3" stroke-linecap="round" stroke-miterlimit="10" d="M448,303.5h31
				c0,0,0.333-2,3-2s11,0,11,0"/>
			<polyline fill="none" stroke="#414242" stroke-width="3" stroke-linecap="round" stroke-miterlimit="10" points="288.5,147 
				288.5,226.5 351.5,226.5 351.5,143 			"/>
			<path fill="none" stroke="#414242" stroke-width="3" stroke-linecap="round" stroke-miterlimit="10" d="M170,279.5h22
				c0,0,6.5-1,6.5,4H255c0,0,5.75-3,10-5.5s12.5-3.125,10-9.125s-14.75-27.438-16.25-30.188S249,221.5,243,221.5s-13,0-13,0
				l-16.5-16.875V194c0,0-7.25-13.5-17-13.5c0,0-6.625-3.5-8.625-3.5c0,0-6.188-4.25-6.688-9.5s-6.469-15.167-12.219-15.167"/>
			<path fill="none" stroke="#414242" stroke-width="3" stroke-linecap="round" stroke-miterlimit="10" d="M275.917,272.667
				c0,0,8.458-2.75,9.958-4.25s5.396-1.458,8.396,1.875c3,3.333,18.365,11.104,17.698,32.771s-4.651,28.635-5.484,34.302
				c-0.833,5.667-1.159,14.818,1.508,19.818s9.837,15.492,11.504,19.659c1.667,4.167,1.502,5.579,11.835,7.746
				c10.333,2.167,18.002,4.913,26.502,17.913H374c0,0,10.167-1.583,10.167,9.25s1,13.708,1,16.708s2.667,6.438,4.5,8.271
				c1.833,1.833,19.833,24.302,20.833,27.302s4.333,11.151,4.667,15.984c0.333,4.833,7.5,14.484,15.833,0.484h40"/>
			
				<line fill="none" stroke="#414242" stroke-width="3" stroke-linecap="round" stroke-miterlimit="10" x1="-25" y1="479" x2="412.106" y2="468.414"/>
			
				<line fill="none" stroke="#414242" stroke-width="3" stroke-linecap="round" stroke-miterlimit="10" x1="117.311" y1="285.648" x2="121.686" y2="475.448"/>
			<polyline fill="none" stroke="#414242" stroke-width="3" stroke-linecap="round" stroke-miterlimit="10" points="120,383.5 
				243.5,383.5 243.5,447 121.436,450.25 			"/>
			<path fill="none" stroke="#414242" stroke-width="3" stroke-linecap="round" stroke-miterlimit="10" d="M144.582,475.391
				c0,0-22.082,2.654-22.082,11.965c0,9.311,0,18.144,0,18.144h-6v24h8v27H122l2,57.75c0,0,0.916,39.875,9,39.875
				s8.875,19.938,8.875,27.604"/>
			<polyline fill="none" stroke="#414242" stroke-width="3" stroke-linecap="round" stroke-miterlimit="10" points="-22,614.5 
				39.5,614.5 39.5,619.667 123.75,618.25 			"/>
			<path fill="none" stroke="#414242" stroke-width="3" stroke-linecap="round" stroke-miterlimit="10" d="M-25,288.75l195-4.25
				L168,151c-0.14-9.331-9-12.333-14-12.785c-5-0.452-8.667-21.215-21-19.548c-12.333,1.667-6.667-11-12.667-14S102,76.667,100,73
				s-4-17.667-4-17.667S86.5,21.5,89.5,15s13-14,13-35"/>
			
				<line fill="none" stroke="#414242" stroke-width="3" stroke-linecap="round" stroke-miterlimit="10" x1="-25" y1="43" x2="92.231" y2="40.335"/>
			
				<line fill="none" stroke="#414242" stroke-width="3" stroke-linecap="round" stroke-miterlimit="10" x1="216.5" y1="-16" x2="222.231" y2="147.296"/>
			<path fill="none" stroke="#414242" stroke-width="3" stroke-linecap="round" stroke-miterlimit="10" d="M354.5,6v92.5H392
				C392,98.5,382.5,33.167,354.5,6z"/>
			<polygon fill="none" stroke="#414242" stroke-width="3" stroke-miterlimit="10" points="262.5,-19.5 262.5,36.5 309,36.5 
				331.5,59 331.5,-19.5 			"/>
			<path fill="none" stroke="#414242" stroke-width="3" stroke-miterlimit="10" d="M483,373.5h13c0,0,1.833-4.75,4.667-4.25
				c2.833,0.5,8.161,0.125,8.161,0.125"/>
			<path fill="none" stroke="#414242" stroke-width="3" stroke-miterlimit="10" d="M122.414,568.02L378,560c0,0,1,50,3,66"/>
			<polyline fill="none" stroke="#414242" stroke-width="3" stroke-miterlimit="10" points="352.5,561 352.5,533.5 377.5,533.5 
				377.5,560 			"/>
			<path fill="none" stroke="#414242" stroke-width="3" stroke-miterlimit="10" d="M422.667,487.356c0,0-3.333,15.644-3.333,26.644
				s-0.667,40.667,6.333,50S434,584.667,434,589.667S437,601,437,604s1.333,16.667,1.333,16.667"/>
			<line fill="none" stroke="#414242" stroke-width="3" stroke-miterlimit="10" x1="434" y1="584.5" x2="474" y2="584.5"/>
			<line fill="none" stroke="#414242" stroke-width="3" stroke-miterlimit="10" x1="312" y1="307.5" x2="348" y2="307.5"/>
			
				<line fill="none" stroke="#414242" stroke-width="3" stroke-linecap="round" stroke-miterlimit="10" x1="275.463" y1="563.218" x2="270" y2="473.707"/>
			<text transform="matrix(1 0 0 1 17.0127 226)" fill="#FBF8CD" font-family="'SlimJoe'" font-size="15">Logan Square</text>
			<text transform="matrix(1 0 0 1 289 508.8804)" fill="#FBF8CD" font-family="'SlimJoe'" font-size="15">West Loop</text>
			<text transform="matrix(1 0 0 1 304 551.0032)" fill="#FBF8CD" font-family="'SlimJoe'" font-size="15">GreekTown</text>
			<text transform="matrix(1 0 0 1 153.4805 593)" fill="#FBF8CD" font-family="'SlimJoe'" font-size="15">Little Italy / UIC</text>
			<text transform="matrix(1 0 0 1 294 179)"><tspan x="0" y="0" fill="#FBF8CD" font-family="'SlimJoe'" font-size="15">Sheffield</tspan><tspan x="0" y="18" fill="#FBF8CD" font-family="'SlimJoe'" font-size="15">&amp; DePaul</tspan></text>
			<text transform="matrix(1 0 0 1 470.5 338)" fill="#FBF8CD" font-family="'SlimJoe'" font-size="15">Gold Coast</text>
			<text transform="matrix(1 0 0 1 487.082 433.004)" fill="#FBF8CD" font-family="'SlimJoe'" font-size="15">Streetsville</text>
			<text transform="matrix(1 0 0 1 579.5 521.9997)" fill="#FBF8CD" font-family="'SlimJoe'" font-size="15">Millennium Park</text>
			<text transform="matrix(1 0 0 1 549.9873 406.4997)" fill="#FBF8CD" font-family="'SlimJoe'" font-size="15">Rush &amp; Division</text>
			<text transform="matrix(1 0 0 1 549.9873 382.0002)" fill="#FBF8CD" font-family="'SlimJoe'" font-size="15">Magnificant Mile</text>
			<text transform="matrix(1 0 0 1 7.7305 377.3605)"><tspan x="0" y="0" fill="#FBF8CD" font-family="'SlimJoe'" font-size="15">Humboldt</tspan><tspan x="26.925" y="18" fill="#FBF8CD" font-family="'SlimJoe'" font-size="15">Park</tspan></text>
			<text transform="matrix(1 0 0 1 168.5674 514.0001)"><tspan x="0" y="0" fill="#FBF8CD" font-family="'SlimJoe'" font-size="15">United</tspan><tspan x="-1.552" y="18" fill="#FBF8CD" font-family="'SlimJoe'" font-size="15">Center</tspan></text>
			<text transform="matrix(1 0 0 1 10.0747 540.5001)"><tspan x="0" y="0" fill="#FBF8CD" font-family="'SlimJoe'" font-size="15">Garfield</tspan><tspan x="19.087" y="18" fill="#FBF8CD" font-family="'SlimJoe'" font-size="15">Park</tspan></text>
			<text transform="matrix(0 1 -1 0 446 508.8804)" fill="#FBF8CD" font-family="'SlimJoe'" font-size="15">Loop</text>
			<text transform="matrix(1 0 0 1 474.1504 572.0002)"><tspan x="0" y="0" fill="#FBF8CD" font-family="'SlimJoe'" font-size="15">Grant</tspan><tspan x="8.002" y="18" fill="#FBF8CD" font-family="'SlimJoe'" font-size="15">Park</tspan></text>
			<text transform="matrix(1 0 0 1 381 373)"><tspan x="0" y="0" fill="#FBF8CD" font-family="'SlimJoe'" font-size="15">River</tspan><tspan x="0" y="18" fill="#FBF8CD" font-family="'SlimJoe'" font-size="15">North</tspan></text>
			<text transform="matrix(1 0 0 1 131.5771 57.3553)"><tspan x="0" y="0" fill="#FBF8CD" font-family="'SlimJoe'" font-size="15">North</tspan><tspan x="-2.647" y="18" fill="#FBF8CD" font-family="'SlimJoe'" font-size="15">Center</tspan></text>
			<text transform="matrix(1 0 0 1 275.917 250)" fill="#FBF8CD" font-family="'SlimJoe'" font-size="15">Lincoln Park</text>
			<text transform="matrix(1 0 0 1 239.917 114)" fill="#FBF8CD" font-family="'SlimJoe'" font-size="15">Lakeview</text>
			<text transform="matrix(1 0 0 1 319.499 86)" fill="#FBF8CD" font-family="'SlimJoe'" font-size="15">Boystown</text>
			<text transform="matrix(1 0 0 1 228.9961 23)" fill="#FBF8CD" font-family="'SlimJoe'" font-size="15">Wrigleyville</text>
			<text transform="matrix(1 0 0 1 11.0078 104)" fill="#FBF8CD" font-family="'SlimJoe'" font-size="15">Avondale</text>
			<text transform="matrix(1 0 0 1 385.5928 296.5417)"><tspan x="0" y="0" fill="#FBF8CD" font-family="'SlimJoe'" font-size="15">Old</tspan><tspan x="-9.226" y="20" fill="#FBF8CD" font-family="'SlimJoe'" font-size="15">Town</tspan></text>
			
				<text transform="matrix(0.6955 0.7185 -0.7185 0.6955 175.4612 202.4132)" fill="#FBF8CD" font-family="'SlimJoe'" font-size="15">Bucktown</text>
			<text transform="matrix(1 0 0 1 155.8945 331.0001)"><tspan x="0" y="0" fill="#FBF8CD" font-family="'SlimJoe'" font-size="15">Wicker Park /</tspan><tspan x="10.38" y="18" fill="#FBF8CD" font-family="'SlimJoe'" font-size="15">West Town</tspan></text>
			<text transform="matrix(1 0 0 1 124 409.0001)"><tspan x="0" y="0" fill="#FBF8CD" font-family="'SlimJoe'" font-size="15">Ukrainian Village</tspan><tspan x="0" y="18" fill="#FBF8CD" font-family="'SlimJoe'" font-size="15">&amp; East Village</tspan></text>
		</g>
	</g>
	<line fill="none" stroke="#FBF8CD" stroke-linecap="round" stroke-miterlimit="10" x1="546" y1="399.5" x2="459" y2="399.5"/>
</g>
</svg>
