<?xml version="1.0" encoding="utf-8"?>
<!-- Generator: Adobe Illustrator 17.0.0, SVG Export Plug-In . SVG Version: 6.00 Build 0)  -->
<!DOCTYPE svg PUBLIC "-//W3C//DTD SVG 1.1//EN" "http://www.w3.org/Graphics/SVG/1.1/DTD/svg11.dtd">
<svg version="1.1" id="Layer_1" xmlns="http://www.w3.org/2000/svg" xmlns:xlink="http://www.w3.org/1999/xlink" x="0px" y="0px"
	 width="130px" height="131px" viewBox="0 0 130 131" enable-background="new 0 0 130 131" xml:space="preserve">
<g>
	<g>
		<circle fill="#FBF8CD" stroke="#414242" stroke-width="1.752" stroke-miterlimit="10" cx="64.829" cy="65.623" r="63.5"/>
		<circle fill="#E9563A" cx="64.829" cy="65.623" r="60.255"/>
		<circle fill="#66A5A4" stroke="#FBF8CD" stroke-width="2.6551" stroke-miterlimit="10" cx="64.829" cy="65.623" r="41.813"/>
	</g>
	<g>
		<path fill="#F3DBC4" stroke="#414242" stroke-width="0.6627" stroke-miterlimit="10" d="M112.141,77.063
			c0,0-0.463,2.05-0.874,2.775c-0.411,0.725-0.34,2.821-1.602,4.406c-1.262,1.585-0.173,1.806-0.982,2.924
			c-0.81,1.118-1.278,3.959-7.18,9.909c0,0-3.347,4.619-4.557,4.878c-1.21,0.259-3.67,1.772-8.787-3.867
			c-5.117-5.639-9.781-15.04-10.947-16.567s-5.87-6.639-7.842-9.091c-1.973-2.452-4.78-6.418-5.049-9.339l-0.27,0.373
			c0,0-3.274-15.552,3.18-22.578c0,0,5.584-1.748,6.807,0.955c0,0,1.069,0.093,0.915,0.776c0,0,3.728,0.656,3.224,10.29
			c0,0,2.399,2.647,2.157,3.608c0,0,0.917,2.028,1.891,1.938s1.488-0.172,2.071,0.592s6.146,2.181,7.392,2.97l0.61-0.058
			c0,0-2.348-0.837-3.055-2.213c-0.707-1.376-2.442-7.292-1.106-8.823c0,0,1.102-0.11,1.65-0.395
			c0.547-0.285,3.149,5.69,3.829,7.887c0,0,0.493-0.211,0.545-1.536c0,0-0.159-1.819,0.26-2.084
			c0.419-0.265,0.382,1.981,0.382,1.981s0.131,1.231,0.146,2.151c0.015,0.92,0.521,3.672,0.819,3.888
			c0.298,0.216,3.768-1.814,4.806-1.176c1.038,0.638,0.819,2.979,1.443,3.999s0.816,2.637,3.051,4.256
			C107.302,71.511,113.222,73.692,112.141,77.063z"/>
		<path fill="#FBF8CD" stroke="#414242" stroke-width="0.368" stroke-miterlimit="10" d="M109.722,76.597
			c0.703,0.562,1.976,0.781,2.681,0.863c0.026-0.11,0.042-0.178,0.042-0.178c1.081-3.371-4.84-5.552-7.075-7.171
			c-1.236-0.895-1.846-1.789-2.251-2.583C103.37,70.316,108.767,75.833,109.722,76.597z"/>
		<path fill="#E17B30" stroke="#414242" stroke-width="0.6627" stroke-miterlimit="10" d="M73.991,52.525
			c-0.731-0.454-2.334-1.274-2.334-1.274c-0.255,1.292-0.867,3.235-0.608,4.445c0.259,1.21,1.078,5.098,1.113,6.147
			s0.321,1.596,1.181,2.447c0.861,0.851,4.069,5.675,5.222,7.533s7.549,11.378,8.173,12.398c0.61,0.997,5.805,11.781,14.719,13.546
			c0.217-0.289,0.348-0.47,0.348-0.47c5.902-5.949,6.37-8.791,7.18-9.909c0.81-1.118-0.28-1.339,0.982-2.924
			c1.262-1.585,1.191-3.682,1.602-4.406c0.338-0.596,0.711-2.086,0.833-2.597c-0.705-0.081-1.978-0.3-2.681-0.863
			c-0.955-0.764-6.352-6.281-6.603-9.069c-0.328-0.642-0.521-1.217-0.8-1.674c-0.624-1.02-0.405-3.361-1.443-3.999
			c-1.038-0.638-4.508,1.392-4.806,1.176c-0.011-0.008-0.024-0.027-0.036-0.042c-0.454,0.602-1.263,2.039-1.263,2.039l-2.268-2.828
			l-0.514,0.033c-1.246-0.789-6.809-2.207-7.392-2.97s-1.097-0.681-2.071-0.592s-1.891-1.938-1.891-1.938
			c0.198-0.788-1.377-2.707-1.952-3.374c-0.269,0.169-0.504,0.386-0.504,0.386C75.637,52.135,73.991,52.525,73.991,52.525z
			 M103.783,75.475c2.602,1.885,3.183,5.523,1.298,8.125c-1.885,2.602-5.523,3.183-8.125,1.298
			c-2.602-1.885-3.183-5.523-1.298-8.125C97.543,74.171,101.181,73.59,103.783,75.475z"/>
		
			<circle fill="#FFFFFF" stroke="#414242" stroke-width="0.368" stroke-linecap="round" stroke-miterlimit="10" cx="100.369" cy="80.187" r="5.818"/>
		<path fill="#66A5A4" stroke="#414242" stroke-width="0.368" stroke-miterlimit="10" d="M90.146,54.838
			c0.047,3.456,1.731,4.938,2.254,5.316l0,0l0,0c0.096,0.07,0.153,0.102,0.153,0.102C92.186,56.998,90.146,54.838,90.146,54.838z"/>
		<path fill="none" stroke="#414242" stroke-width="0.368" stroke-linecap="round" stroke-miterlimit="10" d="M74.558,42.218
			c0,0-1.75,1.004-2.288,3.001c-0.538,1.996-0.662,4.52-0.916,5.812c-0.255,1.292-0.867,3.235-0.608,4.445
			c0.259,1.21,1.078,5.098,1.113,6.147c0.036,1.048,0.321,1.596,1.181,2.447c0.861,0.851,4.069,5.675,5.222,7.533
			s7.549,11.378,8.173,12.398s5.781,11.858,14.455,13.371"/>
		<path fill="none" stroke="#414242" stroke-width="0.368" stroke-linecap="round" stroke-miterlimit="10" d="M73.105,41.165
			c0,0-2.347,2.219-3,5.552c-0.654,3.333-1.169,12.276,0.124,14.804c0,0-3.879,0.257-5.909,1.57"/>
		<path fill="none" stroke="#414242" stroke-width="0.368" stroke-linecap="round" stroke-miterlimit="10" d="M65.864,62.37
			c0,0,0.676,2.935,1.919,4.669s9.087,10.144,10.698,13.357c1.611,3.212,9.748,16.758,15.249,19.306"/>
		<path fill="none" stroke="#414242" stroke-width="0.368" stroke-linecap="round" stroke-miterlimit="10" d="M91.932,101.369
			c0,0,4.651-3.932,5.534-4.837"/>
		
			<ellipse transform="matrix(0.8098 0.5867 -0.5867 0.8098 48.0838 -33.665)" fill="#FBF8CD" stroke="#414242" stroke-width="0.368" stroke-linecap="round" stroke-miterlimit="10" cx="75.96" cy="57.322" rx="0.981" ry="0.889"/>
		
			<ellipse transform="matrix(0.8098 0.5867 -0.5867 0.8098 50.1062 -34.4555)" fill="#FBF8CD" stroke="#414242" stroke-width="0.368" stroke-linecap="round" stroke-miterlimit="10" cx="78.19" cy="60.046" rx="1.564" ry="1.219"/>
		
			<ellipse transform="matrix(0.8098 0.5867 -0.5867 0.8098 52.9698 -36.4039)" fill="#FBF8CD" stroke="#414242" stroke-width="0.368" stroke-linecap="round" stroke-miterlimit="10" cx="82.627" cy="63.488" rx="1.595" ry="1.035"/>
		
			<ellipse transform="matrix(0.8098 0.5867 -0.5867 0.8098 55.1324 -39.044)" fill="#FBF8CD" stroke="#414242" stroke-width="0.368" stroke-linecap="round" stroke-miterlimit="10" cx="87.78" cy="65.503" rx="1.76" ry="1.2"/>
		
			<ellipse transform="matrix(0.8098 0.5867 -0.5867 0.8098 56.9165 -41.4898)" fill="#FBF8CD" stroke="#414242" stroke-width="0.368" stroke-linecap="round" stroke-miterlimit="10" cx="92.444" cy="67.032" rx="1.196" ry="0.92"/>
		
			<ellipse transform="matrix(0.8098 0.5867 -0.5867 0.8098 57.3815 -44.2547)" fill="#FBF8CD" stroke="#414242" stroke-width="0.368" stroke-linecap="round" stroke-miterlimit="10" cx="96.941" cy="66.367" rx="0.828" ry="1.153"/>
		
			<circle fill="#FBF8CD" stroke="#414242" stroke-width="0.368" stroke-linecap="round" stroke-miterlimit="10" cx="100.066" cy="79.967" r="5.818"/>
		<path fill="none" stroke="#414242" stroke-width="0.368" stroke-linecap="round" stroke-miterlimit="10" d="M111.866,77.181
			c0,0-1.44,0.002-2.447-0.804c-1.007-0.805-6.42-6.675-6.421-8.732"/>
		
			<circle fill="#FBF8CD" stroke="#414242" stroke-width="0.368" stroke-linecap="round" stroke-miterlimit="10" cx="82.007" cy="71.325" r="1.259"/>
		
			<circle fill="none" stroke="#414242" stroke-width="0.368" stroke-linecap="round" stroke-miterlimit="10" cx="82.007" cy="71.325" r="0.17"/>
		
			<circle fill="#FBF8CD" stroke="#414242" stroke-width="0.368" stroke-linecap="round" stroke-miterlimit="10" cx="85.345" cy="76.83" r="1.104"/>
		<path fill="none" stroke="#414242" stroke-width="0.368" stroke-linecap="round" stroke-miterlimit="10" d="M71.675,51.226
			c0,0,1.281,0.625,2.012,1.079c0,0,1.646-0.39,4.19,1.222c0,0,0.277-0.66,0.562-0.319"/>
		<path fill="#FBF8CD" stroke="#414242" stroke-width="0.368" stroke-linecap="round" stroke-miterlimit="10" d="M80.741,57.416
			c0,0-2.926,0.864-3.216,2.139c0,0,0.977,1.191,2.588-0.018c0,0,1.169-0.933,1.64-1.009"/>
		<path fill="#FBF8CD" stroke="#414242" stroke-width="0.368" stroke-linecap="round" stroke-miterlimit="10" d="M85.187,59.956
			c0,0-3.627,1.808-2.873,3.442c0.754,1.634,3.308-2.37,4.985-2.594"/>
		<path fill="#FBF8CD" stroke="#414242" stroke-width="0.368" stroke-linecap="round" stroke-miterlimit="10" d="M89.632,61.661
			c0,0-3.433,3.08-2.445,3.852c0.988,0.772,3.367-2.811,4.116-3.232"/>
		<path fill="#FBF8CD" stroke="#414242" stroke-width="0.368" stroke-linecap="round" stroke-miterlimit="10" d="M79.827,56.224
			c0,0-2.094-1.48-4.008,0.599c0,0-0.667,0.905,0.14,0.499s2.41-1.549,3.886-0.555"/>
		<path fill="#FBF8CD" stroke="#414242" stroke-width="0.368" stroke-linecap="round" stroke-miterlimit="10" d="M92.366,63.052
			c0,0-1.106,3.576-0.03,4.129c1.076,0.553,1.191-3.682,1.191-3.682"/>
		<path fill="#FBF8CD" stroke="#414242" stroke-width="0.368" stroke-linecap="round" stroke-miterlimit="10" d="M95.784,64.46
			c0,0,0.425,2.8,1.009,2.39c0.585-0.409-0.146-3.06-0.286-3.389"/>
		<path fill="none" stroke="#414242" stroke-width="0.368" stroke-linecap="round" stroke-miterlimit="10" d="M92.383,62.15
			l2.085,2.658c0,0,1.139-2.025,1.472-2.276"/>
		<path fill="none" stroke="#414242" stroke-width="0.368" stroke-linecap="round" stroke-miterlimit="10" d="M92.249,60.036
			c0,0-2.351-1.325-2.407-5.418C89.842,54.618,91.883,56.778,92.249,60.036z"/>
		<path fill="none" stroke="#414242" stroke-width="0.368" stroke-linecap="round" stroke-miterlimit="10" d="M90.43,51.674
			c0,0-1.302,1.253-0.696,3.093"/>
		<path fill="none" stroke="#414242" stroke-width="0.368" stroke-linecap="round" stroke-miterlimit="10" d="M92.096,59.934
			c0,0,2.559,3.316,2.896,3.582"/>
		
			<line fill="none" stroke="#414242" stroke-width="0.368" stroke-linecap="round" stroke-miterlimit="10" x1="93.615" y1="58.412" x2="95.233" y2="63.183"/>
		
			<circle fill="none" stroke="#414242" stroke-width="0.368" stroke-linecap="round" stroke-miterlimit="10" cx="85.245" cy="76.968" r="0.17"/>
	</g>
	<g>
		<path fill="#414242" d="M21.695,80.314c3.614,5.858,14.718,7.538,14.718,7.538l1.309,8.266c17.838,2.447,32.861-8.26,32.861-8.26
			c-4.787-9.974-11.578-35.69-11.578-35.69s5.737-3.15,4.432-6.615c-1.305-3.465-4.009-3.904-4.009-3.904s2.54-4.842,0.452-7.787
			s-6.222-3.091-6.222-3.091s0.974-3.803-3.244-5.746s-8.763,0.155-8.763,0.155s-0.885-2.593-5.464-1.541
			c-4.579,1.052-5.409,5.617-5.409,5.617c-9.468,2.557-11.068,9.054-10.927,13.109s7.179,6.065,7.179,6.065l0.847,3.25
			c0,0-5.021,0.556-8.96,5.787C14.976,62.697,18.082,74.456,21.695,80.314z M32.719,49.324c0,0,6.339-2.174,7.301-7.389
			c0,0-5.193,6.759-13.766,3.625c-8.573-3.133-2.561-14.269,6.589-14.585c0,0-1.423-3.471,3.016-5.944
			c4.439-2.472,5.386,2.289,5.386,2.289s3.424-3.849,8.271-1.403s2.361,6.35,2.361,6.35s6.434-0.568,7.503,3.73
			c1.068,4.298-2.053,6.188-2.053,6.188s4.216,0.339,5.224,4.068c0,0-0.389,3.46-4.406,4.545s-7.136-0.32-6.972-3.134
			c0.163-2.815,0.163-2.815,0.163-2.815s-8.731-0.412-7.224-6.914c0,0-3.052,1.894-1.825,6.107c1.227,4.213,6.01,2.89,6.01,2.89
			s-0.916,7.666,8.95,6.356L68.37,87.07c0,0-12.19,7.294-23.679,7.38L32.719,49.324z M21.336,70.283
			C24.33,84.64,35.27,82.137,35.27,82.137l0.289,2.59C21.023,84.322,21.336,70.283,21.336,70.283z M21.699,64.029
			c0.38-7.634,6.87-7.007,6.87-7.007c1.149,1.824,5.898,23.813,5.898,23.813C25.739,83.09,21.319,71.663,21.699,64.029z
			 M21.886,55.944c3.14-3.018,8.311-3.707,8.311-3.707l-0.664-2.345c0.662-0.056,2.486-0.389,2.486-0.389
			c5.339,24.785,8.518,45.176,8.518,45.176l-1.407-0.082c-0.365-8.305-8.343-40.35-8.343-40.35
			C28.036,52.959,21.886,55.944,21.886,55.944z"/>
		<path fill="#F3DBC4" d="M34.467,80.835c0,0-4.749-21.989-5.898-23.813c0,0-6.49-0.628-6.87,7.007
			C21.319,71.663,25.739,83.09,34.467,80.835z M23.185,63.299c0.265-4.566,4.541-4.712,4.541-4.712
			c0.572,0.957,4.927,21.076,4.927,21.076C24.617,79.964,22.92,67.865,23.185,63.299z"/>
		<path fill="#F3DBC4" d="M35.27,82.137l0.289,2.59c-14.536-0.404-14.224-14.443-14.224-14.443
			C24.33,84.64,35.27,82.137,35.27,82.137z"/>
		<path fill="#F3DBC4" d="M40.536,94.68l-1.407-0.082c-0.023-0.521-0.076-1.135-0.155-1.829l1.241-0.086
			C40.426,93.979,40.536,94.68,40.536,94.68z"/>
		<path fill="#E17B30" d="M40.215,92.682l-1.241,0.086c-0.832-7.314-4.564-23.474-6.691-32.363l1.936-0.358
			C37.351,75.529,39.451,88.001,40.215,92.682z"/>
		<path fill="#F3DBC4" d="M30.196,52.237l-0.664-2.345c0.662-0.056,2.486-0.389,2.486-0.389c0.781,3.626,1.516,7.157,2.201,10.545
			l-1.936,0.358c-0.888-3.713-1.497-6.158-1.497-6.158c-2.749-1.289-8.9,1.696-8.9,1.696C25.026,52.926,30.196,52.237,30.196,52.237
			z"/>
		<path fill="#F3DBC4" d="M32.842,30.975c0,0-1.423-3.471,3.016-5.944c4.439-2.472,5.386,2.289,5.386,2.289s3.424-3.849,8.271-1.403
			s2.361,6.35,2.361,6.35s6.434-0.568,7.503,3.73c1.068,4.298-2.053,6.188-2.053,6.188s4.216,0.339,5.224,4.068
			c0,0-0.389,3.46-4.406,4.545s-7.136-0.32-6.972-3.134c0.163-2.815,0.163-2.815,0.163-2.815s-8.731-0.412-7.224-6.914
			c0,0-3.052,1.894-1.825,6.107c1.227,4.213,6.01,2.89,6.01,2.89s-0.916,7.666,8.95,6.356L68.37,87.07c0,0-12.19,7.294-23.679,7.38
			l-0.298-1.122c11.055-0.585,21.849-7.449,21.849-7.449c-2.062-2.316-10.219-31.532-10.219-31.532l-3.45,1.055l4.729,20.168
			l-7.973-19.415l-4.591,1.201c-0.419-0.316-0.927-0.517-1.484-0.549c-1.166-0.068-2.208,0.614-2.691,1.641l-5.072,1.326
			l-2.772-10.45c0,0,6.339-2.174,7.301-7.389c0,0-5.193,6.759-13.766,3.625C17.681,42.427,23.693,31.292,32.842,30.975z"/>
		<path fill="#E17B30" d="M40.563,58.448l-5.072,1.326l8.902,33.554c11.055-0.585,21.849-7.449,21.849-7.449
			c-2.062-2.316-10.219-31.532-10.219-31.532l-3.45,1.055l4.729,20.168l-7.973-19.415l-4.591,1.201
			c0.746,0.562,1.209,1.494,1.149,2.522c-0.093,1.606-1.423,2.836-2.971,2.746c-1.547-0.09-2.726-1.465-2.633-3.071
			C40.306,59.157,40.405,58.784,40.563,58.448z M43.274,75.075c0.05-0.866,0.793-1.528,1.66-1.478
			c0.866,0.05,1.528,0.793,1.478,1.66s-0.793,1.528-1.66,1.478C43.885,76.685,43.223,75.942,43.274,75.075z M41.156,63.651
			c1.267,0.074,2.235,1.161,2.162,2.428c-0.074,1.267-1.161,2.235-2.428,2.162c-1.267-0.074-2.235-1.161-2.162-2.428
			C38.801,64.546,39.888,63.578,41.156,63.651z"/>
		<path fill="#F3DBC4" d="M42.932,57.788c-0.416-0.024-0.804,0.103-1.109,0.331l-1.26,0.329c0.483-1.027,1.525-1.708,2.691-1.641
			c0.557,0.032,1.064,0.233,1.484,0.549L43.043,57.8C43.006,57.795,42.97,57.79,42.932,57.788z"/>
		<path fill="#F3DBC4" d="M45.887,59.878c-0.093,1.606-1.423,2.836-2.971,2.746c-1.547-0.09-2.726-1.465-2.633-3.071
			c0.023-0.396,0.122-0.769,0.28-1.105l1.26-0.329c-0.369,0.275-0.618,0.698-0.647,1.185c-0.052,0.891,0.651,1.656,1.569,1.709
			c0.918,0.053,1.704-0.626,1.756-1.516c0.05-0.854-0.595-1.592-1.458-1.697l1.695-0.443C45.484,57.919,45.947,58.85,45.887,59.878z
			"/>
		<path fill="#F3DBC4" d="M43.043,57.8l-1.22,0.319c0.306-0.228,0.693-0.355,1.109-0.331C42.97,57.79,43.006,57.795,43.043,57.8z"/>
		<path fill="#E17B30" d="M44.501,59.497c-0.052,0.891-0.838,1.569-1.756,1.516c-0.918-0.053-1.62-0.818-1.569-1.709
			c0.028-0.487,0.277-0.91,0.647-1.185l1.22-0.319C43.906,57.905,44.551,58.642,44.501,59.497z"/>
		<path fill="#F3DBC4" d="M41.156,63.651c-1.267-0.074-2.355,0.894-2.428,2.162c-0.074,1.267,0.894,2.355,2.162,2.428
			c1.267,0.074,2.355-0.894,2.428-2.162C43.391,64.812,42.423,63.725,41.156,63.651z M40.772,64.947
			c0.648,0.038,1.144,0.594,1.106,1.242c-0.038,0.648-0.594,1.144-1.242,1.106c-0.648-0.038-1.144-0.594-1.106-1.242
			C39.567,65.405,40.123,64.909,40.772,64.947z"/>
		<circle fill="#E17B30" cx="40.704" cy="66.121" r="1.176"/>
		<path fill="#F3DBC4" d="M43.274,75.075c-0.05,0.866,0.611,1.609,1.478,1.66c0.866,0.05,1.609-0.611,1.66-1.478
			s-0.611-1.609-1.478-1.66C44.067,73.548,43.324,74.209,43.274,75.075z M44.145,75.197c0.022-0.387,0.354-0.683,0.741-0.66
			c0.387,0.022,0.683,0.354,0.66,0.741c-0.022,0.387-0.354,0.683-0.741,0.66C44.418,75.916,44.123,75.584,44.145,75.197z"/>
		<circle fill="#E17B30" cx="44.846" cy="75.237" r="0.702"/>
		<path fill="#414242" d="M62.911,87.067c0,0-7.95,4.183-19.973,4.175l0.556,2.543C43.494,93.784,58.936,91.572,62.911,87.067z"/>
	</g>
</g>
</svg>
